HIERARCHY
ROOT mixamorig:Hips
{
	OFFSET -0.000008 104.274872 1.554316
	CHANNELS 6 Xposition Yposition Zposition Xrotation Yrotation Zrotation
	JOINT mixamorig:Spine
	{
		OFFSET -0.000005 10.181595 0.131519
		CHANNELS 6 Xposition Yposition Zposition Xrotation Yrotation Zrotation
		JOINT mixamorig:Spine1
		{
			OFFSET -0.000000 9.893959 -1.470707
			CHANNELS 6 Xposition Yposition Zposition Xrotation Yrotation Zrotation
			JOINT mixamorig:Spine2
			{
				OFFSET -0.000000 9.220757 -1.370641
				CHANNELS 6 Xposition Yposition Zposition Xrotation Yrotation Zrotation
				JOINT mixamorig:Neck
				{
					OFFSET 0.000001 16.740417 -2.049036
					CHANNELS 6 Xposition Yposition Zposition Xrotation Yrotation Zrotation
					JOINT mixamorig:Head
					{
						OFFSET 0.000000 9.617874 1.685006
						CHANNELS 6 Xposition Yposition Zposition Xrotation Yrotation Zrotation
						JOINT mixamorig:HeadTop_End
						{
							OFFSET 0.000002 22.037354 7.501101
							CHANNELS 6 Xposition Yposition Zposition Xrotation Yrotation Zrotation
							End Site
							{
								OFFSET 0.000168 2310.654297 -282.823242
							}
						}
					}
				}
				JOINT mixamorig:RightShoulder
				{
					OFFSET -4.569970 11.014908 -2.160885
					CHANNELS 6 Xposition Yposition Zposition Xrotation Yrotation Zrotation
					JOINT mixamorig:RightArm
					{
						OFFSET -10.592851 -0.524811 -2.232101
						CHANNELS 6 Xposition Yposition Zposition Xrotation Yrotation Zrotation
						JOINT mixamorig:RightForeArm
						{
							OFFSET -27.841511 0.000031 -0.000004
							CHANNELS 6 Xposition Yposition Zposition Xrotation Yrotation Zrotation
							JOINT mixamorig:RightHand
							{
								OFFSET -28.328831 -0.000015 0.000015
								CHANNELS 6 Xposition Yposition Zposition Xrotation Yrotation Zrotation
								JOINT mixamorig:RightHandThumb1
								{
									OFFSET -2.464806 -1.573990 2.681852
									CHANNELS 6 Xposition Yposition Zposition Xrotation Yrotation Zrotation
									JOINT mixamorig:RightHandThumb2
									{
										OFFSET -3.215179 -1.872803 1.924282
										CHANNELS 6 Xposition Yposition Zposition Xrotation Yrotation Zrotation
										JOINT mixamorig:RightHandThumb3
										{
											OFFSET -2.654831 -1.527969 1.512609
											CHANNELS 6 Xposition Yposition Zposition Xrotation Yrotation Zrotation
											JOINT mixamorig:RightHandThumb4
											{
												OFFSET -2.018814 -1.152008 1.108052
												CHANNELS 6 Xposition Yposition Zposition Xrotation Yrotation Zrotation
												End Site
												{
													OFFSET -188.809540 -114.533607 132.431396
												}
											}
										}
									}
								}
								JOINT mixamorig:RightHandIndex1
								{
									OFFSET -9.108284 -0.517868 2.259835
									CHANNELS 6 Xposition Yposition Zposition Xrotation Yrotation Zrotation
									JOINT mixamorig:RightHandIndex2
									{
										OFFSET -3.699989 0.000000 0.001215
										CHANNELS 6 Xposition Yposition Zposition Xrotation Yrotation Zrotation
										JOINT mixamorig:RightHandIndex3
										{
											OFFSET -2.850006 0.000031 -0.000522
											CHANNELS 6 Xposition Yposition Zposition Xrotation Yrotation Zrotation
											JOINT mixamorig:RightHandIndex4
											{
												OFFSET -2.772186 -0.000015 -0.000020
												CHANNELS 6 Xposition Yposition Zposition Xrotation Yrotation Zrotation
												End Site
												{
													OFFSET -277.218445 0.000000 -0.050231
												}
											}
										}
									}
								}
								JOINT mixamorig:RightHandMiddle1
								{
									OFFSET -9.532516 -0.000031 -0.000023
									CHANNELS 6 Xposition Yposition Zposition Xrotation Yrotation Zrotation
									JOINT mixamorig:RightHandMiddle2
									{
										OFFSET -3.700005 -0.000015 0.003713
										CHANNELS 6 Xposition Yposition Zposition Xrotation Yrotation Zrotation
										JOINT mixamorig:RightHandMiddle3
										{
											OFFSET -2.949974 0.000015 -0.002054
											CHANNELS 6 Xposition Yposition Zposition Xrotation Yrotation Zrotation
											JOINT mixamorig:RightHandMiddle4
											{
												OFFSET -2.946640 0.000000 -0.000156
												CHANNELS 6 Xposition Yposition Zposition Xrotation Yrotation Zrotation
												End Site
												{
													OFFSET -294.664337 0.000000 -0.113670
												}
											}
										}
									}
								}
								JOINT mixamorig:RightHandRing1
								{
									OFFSET -9.103600 -0.043076 -1.865134
									CHANNELS 6 Xposition Yposition Zposition Xrotation Yrotation Zrotation
									JOINT mixamorig:RightHandRing2
									{
										OFFSET -3.379288 0.000000 -0.001055
										CHANNELS 6 Xposition Yposition Zposition Xrotation Yrotation Zrotation
										JOINT mixamorig:RightHandRing3
										{
											OFFSET -2.889687 -0.000015 0.000379
											CHANNELS 6 Xposition Yposition Zposition Xrotation Yrotation Zrotation
											JOINT mixamorig:RightHandRing4
											{
												OFFSET -2.638809 -0.000015 0.000941
												CHANNELS 6 Xposition Yposition Zposition Xrotation Yrotation Zrotation
												End Site
												{
													OFFSET -263.880371 0.000000 0.516020
												}
											}
										}
									}
								}
								JOINT mixamorig:RightHandPinky1
								{
									OFFSET -8.076683 -0.486710 -3.806280
									CHANNELS 6 Xposition Yposition Zposition Xrotation Yrotation Zrotation
									JOINT mixamorig:RightHandPinky2
									{
										OFFSET -3.600014 -0.000015 -0.003747
										CHANNELS 6 Xposition Yposition Zposition Xrotation Yrotation Zrotation
										JOINT mixamorig:RightHandPinky3
										{
											OFFSET -2.099983 0.000000 -0.005739
											CHANNELS 6 Xposition Yposition Zposition Xrotation Yrotation Zrotation
											JOINT mixamorig:RightHandPinky4
											{
												OFFSET -2.115768 -0.000031 -0.003680
												CHANNELS 6 Xposition Yposition Zposition Xrotation Yrotation Zrotation
												End Site
												{
													OFFSET -211.577087 0.000000 -0.350686
												}
											}
										}
									}
								}
							}
						}
					}
				}
				JOINT mixamorig:LeftShoulder
				{
					OFFSET 4.570447 11.014725 -2.160855
					CHANNELS 6 Xposition Yposition Zposition Xrotation Yrotation Zrotation
					JOINT mixamorig:LeftArm
					{
						OFFSET 10.592371 -0.524597 -2.232119
						CHANNELS 6 Xposition Yposition Zposition Xrotation Yrotation Zrotation
						JOINT mixamorig:LeftForeArm
						{
							OFFSET 27.841532 -0.000031 0.000026
							CHANNELS 6 Xposition Yposition Zposition Xrotation Yrotation Zrotation
							JOINT mixamorig:LeftHand
							{
								OFFSET 28.328846 -0.000061 0.000022
								CHANNELS 6 Xposition Yposition Zposition Xrotation Yrotation Zrotation
								JOINT mixamorig:LeftHandThumb1
								{
									OFFSET 2.466141 -1.576172 2.681732
									CHANNELS 6 Xposition Yposition Zposition Xrotation Yrotation Zrotation
									JOINT mixamorig:LeftHandThumb2
									{
										OFFSET 3.217812 -1.872070 1.916482
										CHANNELS 6 Xposition Yposition Zposition Xrotation Yrotation Zrotation
										JOINT mixamorig:LeftHandThumb3
										{
											OFFSET 2.656029 -1.528778 1.514513
											CHANNELS 6 Xposition Yposition Zposition Xrotation Yrotation Zrotation
											JOINT mixamorig:LeftHandThumb4
											{
												OFFSET 2.020889 -1.154053 1.115139
												CHANNELS 6 Xposition Yposition Zposition Xrotation Yrotation Zrotation
												End Site
												{
													OFFSET 190.885437 -115.081749 130.048782
												}
											}
										}
									}
								}
								JOINT mixamorig:LeftHandIndex1
								{
									OFFSET 9.109314 -0.518021 2.259871
									CHANNELS 6 Xposition Yposition Zposition Xrotation Yrotation Zrotation
									JOINT mixamorig:LeftHandIndex2
									{
										OFFSET 3.699989 0.000000 -0.000322
										CHANNELS 6 Xposition Yposition Zposition Xrotation Yrotation Zrotation
										JOINT mixamorig:LeftHandIndex3
										{
											OFFSET 2.850006 0.000000 0.000352
											CHANNELS 6 Xposition Yposition Zposition Xrotation Yrotation Zrotation
											JOINT mixamorig:LeftHandIndex4
											{
												OFFSET 2.774864 -0.000031 -0.000027
												CHANNELS 6 Xposition Yposition Zposition Xrotation Yrotation Zrotation
												End Site
												{
													OFFSET 277.486267 0.000000 -0.009857
												}
											}
										}
									}
								}
								JOINT mixamorig:LeftHandMiddle1
								{
									OFFSET 9.533394 0.000061 0.000044
									CHANNELS 6 Xposition Yposition Zposition Xrotation Yrotation Zrotation
									JOINT mixamorig:LeftHandMiddle2
									{
										OFFSET 3.699989 -0.000015 -0.000231
										CHANNELS 6 Xposition Yposition Zposition Xrotation Yrotation Zrotation
										JOINT mixamorig:LeftHandMiddle3
										{
											OFFSET 2.949997 -0.000015 -0.000059
											CHANNELS 6 Xposition Yposition Zposition Xrotation Yrotation Zrotation
											JOINT mixamorig:LeftHandMiddle4
											{
												OFFSET 2.952896 0.000031 0.000063
												CHANNELS 6 Xposition Yposition Zposition Xrotation Yrotation Zrotation
												End Site
												{
													OFFSET 295.289337 0.000000 0.022810
												}
											}
										}
									}
								}
								JOINT mixamorig:LeftHandRing1
								{
									OFFSET 9.104523 -0.042999 -1.865074
									CHANNELS 6 Xposition Yposition Zposition Xrotation Yrotation Zrotation
									JOINT mixamorig:LeftHandRing2
									{
										OFFSET 3.150009 -0.000031 0.000043
										CHANNELS 6 Xposition Yposition Zposition Xrotation Yrotation Zrotation
										JOINT mixamorig:LeftHandRing3
										{
											OFFSET 2.949982 -0.000015 0.000040
											CHANNELS 6 Xposition Yposition Zposition Xrotation Yrotation Zrotation
											JOINT mixamorig:LeftHandRing4
											{
												OFFSET 2.644348 0.000000 0.000057
												CHANNELS 6 Xposition Yposition Zposition Xrotation Yrotation Zrotation
												End Site
												{
													OFFSET 264.434631 0.000000 0.012105
												}
											}
										}
									}
								}
								JOINT mixamorig:LeftHandPinky1
								{
									OFFSET 8.077789 -0.486847 -3.806259
									CHANNELS 6 Xposition Yposition Zposition Xrotation Yrotation Zrotation
									JOINT mixamorig:LeftHandPinky2
									{
										OFFSET 3.599953 0.000031 0.014727
										CHANNELS 6 Xposition Yposition Zposition Xrotation Yrotation Zrotation
										JOINT mixamorig:LeftHandPinky3
										{
											OFFSET 2.100021 0.000015 0.007705
											CHANNELS 6 Xposition Yposition Zposition Xrotation Yrotation Zrotation
											JOINT mixamorig:LeftHandPinky4
											{
												OFFSET 2.125504 0.000031 0.007517
												CHANNELS 6 Xposition Yposition Zposition Xrotation Yrotation Zrotation
												End Site
												{
													OFFSET 212.550781 0.000000 0.625752
												}
											}
										}
									}
								}
							}
						}
					}
				}
			}
		}
	}
	JOINT mixamorig:RightUpLeg
	{
		OFFSET -8.207787 -6.751648 -1.599560
		CHANNELS 6 Xposition Yposition Zposition Xrotation Yrotation Zrotation
		JOINT mixamorig:RightLeg
		{
			OFFSET -0.000002 -44.370117 0.345942
			CHANNELS 6 Xposition Yposition Zposition Xrotation Yrotation Zrotation
			JOINT mixamorig:RightFoot
			{
				OFFSET 0.000003 -44.423679 -3.043532
				CHANNELS 6 Xposition Yposition Zposition Xrotation Yrotation Zrotation
				JOINT mixamorig:RightToeBase
				{
					OFFSET -0.000002 -8.728671 10.710558
					CHANNELS 6 Xposition Yposition Zposition Xrotation Yrotation Zrotation
					JOINT mixamorig:RightToe_End
					{
						OFFSET -0.000001 -0.000679 9.278119
						CHANNELS 6 Xposition Yposition Zposition Xrotation Yrotation Zrotation
						End Site
						{
							OFFSET 0.000000 -0.067690 927.812134
						}
					}
				}
			}
		}
	}
	JOINT mixamorig:LeftUpLeg
	{
		OFFSET 8.207793 -6.751686 -1.599556
		CHANNELS 6 Xposition Yposition Zposition Xrotation Yrotation Zrotation
		JOINT mixamorig:LeftLeg
		{
			OFFSET -0.000004 -44.370014 0.346954
			CHANNELS 6 Xposition Yposition Zposition Xrotation Yrotation Zrotation
			JOINT mixamorig:LeftFoot
			{
				OFFSET -0.000001 -44.423672 -3.044401
				CHANNELS 6 Xposition Yposition Zposition Xrotation Yrotation Zrotation
				JOINT mixamorig:LeftToeBase
				{
					OFFSET -0.000002 -8.728669 10.710558
					CHANNELS 6 Xposition Yposition Zposition Xrotation Yrotation Zrotation
					JOINT mixamorig:LeftToe_End
					{
						OFFSET -0.000003 -0.000679 9.278133
						CHANNELS 6 Xposition Yposition Zposition Xrotation Yrotation Zrotation
						End Site
						{
							OFFSET 0.000000 -0.068021 927.813477
						}
					}
				}
			}
		}
	}
}
MOTION
Frames: 3
Frame Time: 0.033333
0.000006 104.270477 1.554256 0.000010 0.000003 -0.000113 -0.000005 10.181587 0.131522 0.000001 -0.000003 0.000084 -0.000000 9.893967 -1.470711 0.000001 0.000000 -0.000000 -0.000000 9.220802 -1.370642 0.000000 -0.000000 -0.000000 0.000001 16.740433 -2.049030 0.000000 -0.000000 -0.000000 0.000000 9.617859 1.685014 0.000000 0.000000 0.000000 0.000002 22.037384 7.501101 0.000000 -0.000000 0.000000 -4.569968 11.014880 -2.160881 0.000008 0.000001 -0.000038 -10.592865 -0.524797 -2.231862 75.802990 37.303433 -29.447039 -27.841515 0.000001 0.000526 -54.514673 107.072101 69.765622 -28.328829 0.000020 0.000028 -0.000321 -0.000044 0.000007 -2.464411 -1.573855 2.682347 -40.208965 -157.268589 7.211300 -3.215279 -1.872562 1.924646 154.031353 32.185863 7.927684 -2.654957 -1.527896 1.513091 144.859624 26.941686 -42.300570 -2.018842 -1.152015 1.108048 -0.000001 -0.000001 0.000002 -9.108364 -0.517557 2.260175 107.218629 15.599245 -21.119570 -3.700057 0.000322 0.001534 103.348125 12.550522 -15.809632 -2.850080 0.000375 -0.000236 102.458691 9.736133 -12.104901 -2.772146 -0.000016 -0.000020 0.000000 0.000002 -0.000001 -9.532582 0.000271 0.000274 100.908730 15.187129 -18.514030 -3.700075 0.000334 0.004008 101.385791 11.158442 -13.494191 -2.950040 0.000345 -0.001768 102.402608 10.408933 -12.918604 -2.946613 -0.000013 -0.000157 0.000000 0.000002 -0.000002 -9.103688 -0.042750 -1.864854 100.517681 15.996054 -19.131029 -3.379304 0.000336 -0.000775 100.584863 7.089169 -8.551964 -2.889742 0.000386 0.000679 104.012436 4.562340 -5.895293 -2.638808 -0.000002 0.000944 0.000000 -0.000002 -0.000001 -8.076752 -0.486390 -3.806008 94.635782 16.326312 -17.521165 -3.600049 0.000302 -0.003482 97.235160 5.989467 -6.406594 -2.099979 0.000334 -0.005458 98.972392 2.560070 -2.750705 -2.115771 -0.000041 -0.003677 -0.000002 0.000000 -0.000005 4.570446 11.014691 -2.160851 -0.000018 0.000010 -0.000021 10.592427 -0.524463 -2.232384 75.313231 -22.435921 17.403081 27.841839 0.000064 -0.000197 107.518570 -70.641184 88.060598 28.328817 -0.000029 0.000022 0.000022 -0.000089 -0.000000 2.465929 -1.576143 2.681909 -46.296754 167.295607 5.878003 3.217844 -1.871819 1.916373 154.960040 -26.706241 25.687556 2.656084 -1.528659 1.514461 136.984976 -28.593921 47.733525 2.020891 -1.154057 1.115151 0.000004 0.000002 0.000003 9.109358 -0.517882 2.259739 80.243835 -17.840020 15.058824 3.700040 0.000133 -0.000454 77.250307 -16.003208 12.830875 2.850048 0.000155 0.000217 75.422678 -12.982074 10.054050 2.774895 -0.000047 -0.000036 0.000001 0.000002 -0.000000 9.533442 0.000196 -0.000093 81.380768 -16.498052 14.203570 3.700053 0.000165 -0.000392 82.569098 -13.542038 11.900775 2.950062 0.000131 -0.000208 82.493987 -16.673784 14.647484 2.952873 -0.000031 0.000067 0.000002 0.000001 -0.000000 9.104574 -0.042864 -1.865224 80.640301 -15.721789 13.367631 3.150046 0.000185 -0.000097 85.604448 -12.729441 11.797111 2.950015 0.000146 -0.000072 87.748103 -13.986235 13.453839 2.644301 0.000015 0.000056 0.000001 0.000002 0.000000 8.077826 -0.486744 -3.806410 71.391849 -17.802441 13.276658 3.599988 0.000153 0.014565 72.445303 -12.943340 9.876354 2.100029 0.000140 0.007551 74.340073 -11.893546 9.400406 2.125498 -0.000031 0.007514 -0.000001 -0.000002 -0.000001 -8.207786 -6.751667 -1.599560 -0.077001 -0.000003 0.000080 -0.000002 -44.370110 0.345938 0.153719 -0.000000 -0.000000 0.000000 -44.423679 -3.043532 -0.076700 0.000000 -0.000002 -0.000006 -8.728667 10.710559 -0.000009 -0.000000 -0.000000 -0.000001 -0.000679 9.278123 0.000000 -0.000000 -0.000000 8.207792 -6.751710 -1.599556 -0.074518 -0.000003 0.000081 -0.000002 -44.370014 0.346960 0.148822 0.000002 0.000000 -0.000001 -44.423664 -3.044403 -0.074314 0.000000 -0.000002 -0.000004 -8.728671 10.710558 0.000007 -0.000000 -0.000000 0.000000 -0.000680 9.278137 -0.000000 0.000000 -0.000001 
0.000006 104.270477 1.554256 0.000010 0.000003 -0.000113 -0.000005 10.181587 0.131522 0.000001 -0.000003 0.000084 -0.000000 9.893967 -1.470711 0.000001 0.000000 -0.000000 -0.000000 9.220802 -1.370642 0.000000 -0.000000 -0.000000 0.000001 16.740433 -2.049030 0.000000 -0.000000 -0.000000 0.000000 9.617859 1.685014 0.000000 0.000000 0.000000 0.000002 22.037384 7.501101 0.000000 -0.000000 0.000000 -4.569968 11.014880 -2.160881 0.000008 0.000001 -0.000038 -10.592871 -0.524772 -2.231898 76.636908 30.355277 -24.200077 -27.841518 0.000017 0.000549 -51.168516 106.696980 65.520147 -28.328819 0.000019 0.000021 -0.000318 -0.000043 0.000006 -2.464397 -1.573820 2.682332 -44.402657 -157.425929 -2.278325 -3.215256 -1.872566 1.924645 152.781319 32.064245 8.442040 -2.654945 -1.527872 1.513070 143.919763 27.369907 -39.462214 -2.018834 -1.151999 1.108053 -0.000003 -0.000003 0.000002 -9.108390 -0.517552 2.260139 105.616622 15.199802 -20.006044 -3.700056 0.000310 0.001534 104.173260 12.623257 -16.135364 -2.850093 0.000369 -0.000225 104.068744 10.459467 -13.379092 -2.772164 0.000000 -0.000017 -0.000001 -0.000002 0.000000 -9.532593 0.000271 0.000263 97.908549 16.463076 -19.030408 -3.700060 0.000333 0.003999 98.627290 12.318567 -14.199008 -2.950064 0.000336 -0.001768 101.205584 11.722324 -14.239864 -2.946638 0.000003 -0.000156 0.000002 0.000002 -0.000001 -9.103720 -0.042768 -1.864838 96.862799 19.180018 -21.521598 -3.379321 0.000325 -0.000798 96.918602 8.912976 -10.073705 -2.889764 0.000352 0.000661 103.738832 6.467760 -8.291828 -2.638798 0.000001 0.000940 -0.000000 0.000002 0.000002 -8.076770 -0.486390 -3.806008 92.570387 20.602811 -21.365076 -3.600055 0.000289 -0.003499 91.687455 8.966455 -8.865431 -2.099998 0.000322 -0.005484 95.425563 4.645900 -4.869796 -2.115773 -0.000026 -0.003678 -0.000002 -0.000001 -0.000001 4.570446 11.014691 -2.160851 -0.000018 0.000010 -0.000021 10.592413 -0.524462 -2.232380 75.135557 -17.549826 13.542722 27.841833 0.000069 -0.000203 109.977336 -72.832110 92.962993 28.328833 -0.000028 0.000023 0.000022 -0.000089 -0.000001 2.465899 -1.576098 2.681905 -49.417327 176.431313 14.981970 3.217859 -1.871814 1.916397 157.065008 -25.707638 29.727053 2.656113 -1.528651 1.514467 137.280573 -28.428356 52.044293 2.020891 -1.154063 1.115148 -0.000000 0.000001 0.000002 9.109360 -0.517879 2.259747 79.830507 -18.376872 15.402613 3.700027 0.000146 -0.000462 77.575444 -13.055185 10.521825 2.850034 0.000166 0.000202 77.353142 -10.959106 8.781129 2.774879 -0.000046 -0.000028 0.000000 -0.000001 0.000000 9.533440 0.000197 -0.000101 81.161287 -17.768462 15.243690 3.700040 0.000171 -0.000376 83.058044 -12.076204 10.701193 2.950058 0.000167 -0.000194 84.217721 -12.673617 11.466265 2.952880 -0.000016 0.000067 -0.000001 0.000000 0.000000 9.104582 -0.042864 -1.865221 81.822019 -17.534573 15.226046 3.150023 0.000192 -0.000090 84.926135 -11.708203 10.722433 2.950022 0.000184 -0.000098 86.547151 -10.727985 10.105193 2.644318 0.000031 0.000061 0.000000 -0.000002 -0.000000 8.077831 -0.486743 -3.806402 73.968517 -19.359717 15.102945 3.600009 0.000152 0.014562 74.342415 -15.631617 12.285338 2.100030 0.000173 0.007543 76.428362 -12.068905 9.898401 2.125519 0.000001 0.007515 -0.000000 0.000002 0.000000 -8.207786 -6.751667 -1.599560 -0.077001 -0.000003 0.000080 -0.000002 -44.370110 0.345938 0.153719 -0.000000 -0.000000 0.000000 -44.423679 -3.043532 -0.076700 0.000000 -0.000002 -0.000006 -8.728667 10.710559 -0.000009 -0.000000 -0.000000 -0.000001 -0.000679 9.278123 0.000000 -0.000000 -0.000000 8.207792 -6.751710 -1.599556 -0.074518 -0.000003 0.000081 -0.000002 -44.370014 0.346960 0.148822 0.000002 0.000000 -0.000001 -44.423664 -3.044403 -0.074314 0.000000 -0.000002 -0.000004 -8.728671 10.710558 0.000007 -0.000000 -0.000000 0.000000 -0.000680 9.278137 -0.000000 0.000000 -0.000001 
0.000006 104.270477 1.554256 0.000010 0.000003 -0.000113 -0.000005 10.181587 0.131522 0.000001 -0.000003 0.000084 -0.000000 9.893967 -1.470711 0.000001 0.000000 -0.000000 -0.000000 9.220802 -1.370642 0.000000 -0.000000 -0.000000 0.000001 16.740433 -2.049030 0.000000 -0.000000 -0.000000 0.000000 9.617859 1.685014 0.000000 0.000000 0.000000 0.000002 22.037384 7.501101 0.000000 -0.000000 0.000000 -4.569968 11.014880 -2.160881 0.000008 0.000001 -0.000038 -10.592866 -0.524795 -2.231859 76.517079 36.690588 -29.308226 -27.841513 0.000003 0.000554 -49.397711 105.029820 61.902879 -28.328817 0.000023 0.000028 -0.000318 -0.000043 0.000003 -2.464393 -1.573781 2.682323 -46.782209 -160.316056 -7.457553 -3.215269 -1.872601 1.924667 153.716727 30.988435 0.581857 -2.654959 -1.527880 1.513074 143.504966 27.468939 -39.323759 -2.018834 -1.151998 1.108059 -0.000003 -0.000003 0.000002 -9.108370 -0.517560 2.260144 105.373023 15.980380 -20.930848 -3.700057 0.000316 0.001534 102.895202 13.396960 -16.737539 -2.850072 0.000370 -0.000243 102.154413 10.703764 -13.232916 -2.772156 -0.000015 -0.000023 0.000000 0.000001 0.000000 -9.532578 0.000260 0.000259 97.717215 16.707751 -19.246126 -3.700080 0.000333 0.003988 98.624653 12.616111 -14.542646 -2.950057 0.000320 -0.001750 100.233709 11.794937 -14.085080 -2.946643 0.000014 -0.000160 -0.000002 0.000002 0.000001 -9.103683 -0.042766 -1.864861 96.397656 18.645409 -20.756805 -3.379339 0.000323 -0.000772 98.113291 9.191304 -10.606941 -2.889749 0.000345 0.000669 104.132422 6.664971 -8.603178 -2.638821 -0.000003 0.000937 -0.000000 0.000001 -0.000001 -8.076748 -0.486390 -3.806020 92.439767 20.041358 -20.733920 -3.600056 0.000278 -0.003495 92.901453 9.105205 -9.199855 -2.099998 0.000326 -0.005468 96.370377 4.884843 -5.217226 -2.115774 -0.000038 -0.003678 -0.000002 0.000000 -0.000001 4.570446 11.014691 -2.160851 -0.000018 0.000010 -0.000021 10.592440 -0.524460 -2.232395 75.206660 -24.462295 18.957538 27.841822 0.000051 -0.000199 111.642516 -74.790742 96.769587 28.328821 -0.000029 0.000022 0.000025 -0.000089 0.000001 2.465930 -1.576129 2.681922 -46.207049 172.200626 4.706725 3.217870 -1.871847 1.916390 157.568475 -25.300339 31.419236 2.656099 -1.528676 1.514479 137.721421 -28.280374 52.370475 2.020898 -1.154069 1.115147 0.000004 -0.000000 0.000003 9.109373 -0.517879 2.259730 80.870560 -18.673124 15.939546 3.700034 0.000135 -0.000465 77.937315 -12.783283 10.368717 2.850052 0.000166 0.000197 77.647906 -10.611079 8.546410 2.774881 -0.000031 -0.000026 0.000000 0.000000 -0.000000 9.533458 0.000191 -0.000077 82.077646 -18.165429 15.836705 3.700041 0.000166 -0.000380 83.341087 -11.798891 10.506881 2.950062 0.000165 -0.000208 84.439395 -12.134639 11.020554 2.952873 -0.000030 0.000062 -0.000000 -0.000000 0.000000 9.104587 -0.042862 -1.865215 82.286520 -17.975441 15.737085 3.150041 0.000187 -0.000099 85.423127 -11.771897 10.874503 2.950025 0.000175 -0.000091 86.931451 -10.408821 9.870169 2.644315 0.000045 0.000059 0.000001 0.000001 0.000001 8.077834 -0.486739 -3.806405 74.605651 -19.634530 15.489187 3.600020 0.000154 0.014580 73.977007 -15.910331 12.417843 2.100040 0.000171 0.007542 75.965207 -11.920449 9.699768 2.125489 -0.000000 0.007512 -0.000000 -0.000004 0.000000 -8.207786 -6.751667 -1.599560 -0.077001 -0.000003 0.000080 -0.000002 -44.370110 0.345938 0.153719 -0.000000 -0.000000 0.000000 -44.423679 -3.043532 -0.076700 0.000000 -0.000002 -0.000006 -8.728667 10.710559 -0.000009 -0.000000 -0.000000 -0.000001 -0.000679 9.278123 0.000000 -0.000000 -0.000000 8.207792 -6.751710 -1.599556 -0.074518 -0.000003 0.000081 -0.000002 -44.370014 0.346960 0.148822 0.000002 0.000000 -0.000001 -44.423664 -3.044403 -0.074314 0.000000 -0.000002 -0.000004 -8.728671 10.710558 0.000007 -0.000000 -0.000000 0.000000 -0.000680 9.278137 -0.000000 0.000000 -0.000001 
